<?xml version="1.0" encoding="UTF-8" standalone="no"?>
<!DOCTYPE svg PUBLIC "-//W3C//DTD SVG 1.1//EN"
 "http://www.w3.org/Graphics/SVG/1.1/DTD/svg11.dtd">
<!-- Generated by graphviz version 14.1.1 (20251213.1925)
 -->
<!-- Title: InheritanceTree Pages: 1 -->
<svg width="414pt" height="2373pt"
 viewBox="0.00 0.00 414.00 2373.00" xmlns="http://www.w3.org/2000/svg" xmlns:xlink="http://www.w3.org/1999/xlink">
<g id="graph0" class="graph" transform="scale(1 1) rotate(0) translate(4 2368.5)">
<title>InheritanceTree</title>
<polygon fill="white" stroke="none" points="-4,4 -4,-2368.5 409.5,-2368.5 409.5,4 -4,4"/>
<text xml:space="preserve" text-anchor="middle" x="202.75" y="-7.2" font-family="Times New Roman,serif" font-size="14.00">simple_sdf &#45; Inheritance Hierarchy</text>
<!-- GLSL_BUILDER -->
<g id="node1" class="node">
<title>GLSL_BUILDER</title>
<path fill="none" stroke="black" d="M390.88,-60.5C390.88,-60.5 299.88,-60.5 299.88,-60.5 293.88,-60.5 287.88,-54.5 287.88,-48.5 287.88,-48.5 287.88,-36.5 287.88,-36.5 287.88,-30.5 293.88,-24.5 299.88,-24.5 299.88,-24.5 390.88,-24.5 390.88,-24.5 396.88,-24.5 402.88,-30.5 402.88,-36.5 402.88,-36.5 402.88,-48.5 402.88,-48.5 402.88,-54.5 396.88,-60.5 390.88,-60.5"/>
<text xml:space="preserve" text-anchor="middle" x="345.38" y="-37.45" font-family="Times New Roman,serif" font-size="14.00">GLSL_BUILDER</text>
</g>
<!-- SDF_GLSL_BUILDER -->
<g id="node2" class="node">
<title>SDF_GLSL_BUILDER</title>
<path fill="none" stroke="black" d="M149.88,-60.5C149.88,-60.5 27.38,-60.5 27.38,-60.5 21.38,-60.5 15.38,-54.5 15.38,-48.5 15.38,-48.5 15.38,-36.5 15.38,-36.5 15.38,-30.5 21.38,-24.5 27.38,-24.5 27.38,-24.5 149.88,-24.5 149.88,-24.5 155.88,-24.5 161.88,-30.5 161.88,-36.5 161.88,-36.5 161.88,-48.5 161.88,-48.5 161.88,-54.5 155.88,-60.5 149.88,-60.5"/>
<text xml:space="preserve" text-anchor="middle" x="88.62" y="-37.45" font-family="Times New Roman,serif" font-size="14.00">SDF_GLSL_BUILDER</text>
</g>
<!-- SDF_GLSL_BUILDER&#45;&gt;GLSL_BUILDER -->
<g id="edge1" class="edge">
<title>SDF_GLSL_BUILDER&#45;&gt;GLSL_BUILDER</title>
<path fill="none" stroke="black" d="M162.2,-42.5C162.2,-42.5 276.18,-42.5 276.18,-42.5"/>
<polygon fill="none" stroke="black" points="276.18,-46 286.18,-42.5 276.18,-39 276.18,-46"/>
</g>
<!-- SDF_OPS -->
<g id="node3" class="node">
<title>SDF_OPS</title>
<path fill="none" stroke="black" d="M112.75,-132.5C112.75,-132.5 64.5,-132.5 64.5,-132.5 58.5,-132.5 52.5,-126.5 52.5,-120.5 52.5,-120.5 52.5,-108.5 52.5,-108.5 52.5,-102.5 58.5,-96.5 64.5,-96.5 64.5,-96.5 112.75,-96.5 112.75,-96.5 118.75,-96.5 124.75,-102.5 124.75,-108.5 124.75,-108.5 124.75,-120.5 124.75,-120.5 124.75,-126.5 118.75,-132.5 112.75,-132.5"/>
<text xml:space="preserve" text-anchor="middle" x="88.62" y="-109.45" font-family="Times New Roman,serif" font-size="14.00">SDF_OPS</text>
</g>
<!-- SDF_BOX -->
<g id="node4" class="node">
<title>SDF_BOX</title>
<path fill="none" stroke="black" d="M114.62,-564.5C114.62,-564.5 62.62,-564.5 62.62,-564.5 56.62,-564.5 50.62,-558.5 50.62,-552.5 50.62,-552.5 50.62,-540.5 50.62,-540.5 50.62,-534.5 56.62,-528.5 62.62,-528.5 62.62,-528.5 114.62,-528.5 114.62,-528.5 120.62,-528.5 126.62,-534.5 126.62,-540.5 126.62,-540.5 126.62,-552.5 126.62,-552.5 126.62,-558.5 120.62,-564.5 114.62,-564.5"/>
<text xml:space="preserve" text-anchor="middle" x="88.62" y="-541.45" font-family="Times New Roman,serif" font-size="14.00">SDF_BOX</text>
</g>
<!-- SDF_SHAPE -->
<g id="node5" class="node">
<title>SDF_SHAPE</title>
<path fill="none" stroke="black" d="M378.5,-384.5C378.5,-384.5 312.25,-384.5 312.25,-384.5 306.25,-384.5 300.25,-378.5 300.25,-372.5 300.25,-372.5 300.25,-360.5 300.25,-360.5 300.25,-354.5 306.25,-348.5 312.25,-348.5 312.25,-348.5 378.5,-348.5 378.5,-348.5 384.5,-348.5 390.5,-354.5 390.5,-360.5 390.5,-360.5 390.5,-372.5 390.5,-372.5 390.5,-378.5 384.5,-384.5 378.5,-384.5"/>
<text xml:space="preserve" text-anchor="middle" x="345.38" y="-361.45" font-family="Times New Roman,serif" font-size="14.00">SDF_SHAPE</text>
</g>
<!-- SDF_BOX&#45;&gt;SDF_SHAPE -->
<g id="edge2" class="edge">
<title>SDF_BOX&#45;&gt;SDF_SHAPE</title>
<path fill="none" stroke="black" d="M127,-546.5C189.77,-546.5 307.5,-546.5 307.5,-546.5 307.5,-546.5 307.5,-396.26 307.5,-396.26"/>
<polygon fill="none" stroke="black" points="311,-396.26 307.5,-386.26 304,-396.26 311,-396.26"/>
</g>
<!-- SDF_CAPSULE -->
<g id="node6" class="node">
<title>SDF_CAPSULE</title>
<path fill="none" stroke="black" d="M130.38,-492.5C130.38,-492.5 46.88,-492.5 46.88,-492.5 40.88,-492.5 34.88,-486.5 34.88,-480.5 34.88,-480.5 34.88,-468.5 34.88,-468.5 34.88,-462.5 40.88,-456.5 46.88,-456.5 46.88,-456.5 130.38,-456.5 130.38,-456.5 136.38,-456.5 142.38,-462.5 142.38,-468.5 142.38,-468.5 142.38,-480.5 142.38,-480.5 142.38,-486.5 136.38,-492.5 130.38,-492.5"/>
<text xml:space="preserve" text-anchor="middle" x="88.62" y="-469.45" font-family="Times New Roman,serif" font-size="14.00">SDF_CAPSULE</text>
</g>
<!-- SDF_CAPSULE&#45;&gt;SDF_SHAPE -->
<g id="edge3" class="edge">
<title>SDF_CAPSULE&#45;&gt;SDF_SHAPE</title>
<path fill="none" stroke="black" d="M142.85,-474.5C206.5,-474.5 303.5,-474.5 303.5,-474.5 303.5,-474.5 303.5,-396.33 303.5,-396.33"/>
<polygon fill="none" stroke="black" points="307,-396.33 303.5,-386.33 300,-396.33 307,-396.33"/>
</g>
<!-- SDF_CYLINDER -->
<g id="node7" class="node">
<title>SDF_CYLINDER</title>
<path fill="none" stroke="black" d="M134.5,-420.5C134.5,-420.5 42.75,-420.5 42.75,-420.5 36.75,-420.5 30.75,-414.5 30.75,-408.5 30.75,-408.5 30.75,-396.5 30.75,-396.5 30.75,-390.5 36.75,-384.5 42.75,-384.5 42.75,-384.5 134.5,-384.5 134.5,-384.5 140.5,-384.5 146.5,-390.5 146.5,-396.5 146.5,-396.5 146.5,-408.5 146.5,-408.5 146.5,-414.5 140.5,-420.5 134.5,-420.5"/>
<text xml:space="preserve" text-anchor="middle" x="88.62" y="-397.45" font-family="Times New Roman,serif" font-size="14.00">SDF_CYLINDER</text>
</g>
<!-- SDF_CYLINDER&#45;&gt;SDF_SHAPE -->
<g id="edge4" class="edge">
<title>SDF_CYLINDER&#45;&gt;SDF_SHAPE</title>
<path fill="none" stroke="black" d="M141.5,-384.01C141.5,-377.84 141.5,-372.5 141.5,-372.5 141.5,-372.5 288.36,-372.5 288.36,-372.5"/>
<polygon fill="none" stroke="black" points="288.36,-376 298.36,-372.5 288.36,-369 288.36,-376"/>
</g>
<!-- SDF_PLANE -->
<g id="node8" class="node">
<title>SDF_PLANE</title>
<path fill="none" stroke="black" d="M122.12,-348.5C122.12,-348.5 55.12,-348.5 55.12,-348.5 49.12,-348.5 43.12,-342.5 43.12,-336.5 43.12,-336.5 43.12,-324.5 43.12,-324.5 43.12,-318.5 49.12,-312.5 55.12,-312.5 55.12,-312.5 122.12,-312.5 122.12,-312.5 128.12,-312.5 134.12,-318.5 134.12,-324.5 134.12,-324.5 134.12,-336.5 134.12,-336.5 134.12,-342.5 128.12,-348.5 122.12,-348.5"/>
<text xml:space="preserve" text-anchor="middle" x="88.62" y="-325.45" font-family="Times New Roman,serif" font-size="14.00">SDF_PLANE</text>
</g>
<!-- SDF_PLANE&#45;&gt;SDF_SHAPE -->
<g id="edge5" class="edge">
<title>SDF_PLANE&#45;&gt;SDF_SHAPE</title>
<path fill="none" stroke="black" d="M88.5,-348.99C88.5,-355.16 88.5,-360.5 88.5,-360.5 88.5,-360.5 288.53,-360.5 288.53,-360.5"/>
<polygon fill="none" stroke="black" points="288.53,-364 298.53,-360.5 288.53,-357 288.53,-364"/>
</g>
<!-- SDF_SPHERE -->
<g id="node9" class="node">
<title>SDF_SPHERE</title>
<path fill="none" stroke="black" d="M125.5,-276.5C125.5,-276.5 51.75,-276.5 51.75,-276.5 45.75,-276.5 39.75,-270.5 39.75,-264.5 39.75,-264.5 39.75,-252.5 39.75,-252.5 39.75,-246.5 45.75,-240.5 51.75,-240.5 51.75,-240.5 125.5,-240.5 125.5,-240.5 131.5,-240.5 137.5,-246.5 137.5,-252.5 137.5,-252.5 137.5,-264.5 137.5,-264.5 137.5,-270.5 131.5,-276.5 125.5,-276.5"/>
<text xml:space="preserve" text-anchor="middle" x="88.62" y="-253.45" font-family="Times New Roman,serif" font-size="14.00">SDF_SPHERE</text>
</g>
<!-- SDF_SPHERE&#45;&gt;SDF_SHAPE -->
<g id="edge6" class="edge">
<title>SDF_SPHERE&#45;&gt;SDF_SHAPE</title>
<path fill="none" stroke="black" d="M137.86,-258.5C208.58,-258.5 330.5,-258.5 330.5,-258.5 330.5,-258.5 330.5,-336.67 330.5,-336.67"/>
<polygon fill="none" stroke="black" points="327,-336.67 330.5,-346.67 334,-336.67 327,-336.67"/>
</g>
<!-- SDF_TORUS -->
<g id="node10" class="node">
<title>SDF_TORUS</title>
<path fill="none" stroke="black" d="M122.5,-204.5C122.5,-204.5 54.75,-204.5 54.75,-204.5 48.75,-204.5 42.75,-198.5 42.75,-192.5 42.75,-192.5 42.75,-180.5 42.75,-180.5 42.75,-174.5 48.75,-168.5 54.75,-168.5 54.75,-168.5 122.5,-168.5 122.5,-168.5 128.5,-168.5 134.5,-174.5 134.5,-180.5 134.5,-180.5 134.5,-192.5 134.5,-192.5 134.5,-198.5 128.5,-204.5 122.5,-204.5"/>
<text xml:space="preserve" text-anchor="middle" x="88.62" y="-181.45" font-family="Times New Roman,serif" font-size="14.00">SDF_TORUS</text>
</g>
<!-- SDF_TORUS&#45;&gt;SDF_SHAPE -->
<g id="edge7" class="edge">
<title>SDF_TORUS&#45;&gt;SDF_SHAPE</title>
<path fill="none" stroke="black" d="M134.74,-186.5C212.31,-186.5 360.5,-186.5 360.5,-186.5 360.5,-186.5 360.5,-336.74 360.5,-336.74"/>
<polygon fill="none" stroke="black" points="357,-336.74 360.5,-346.74 364,-336.74 357,-336.74"/>
</g>
<!-- SDF_QUICK -->
<g id="node11" class="node">
<title>SDF_QUICK</title>
<path fill="none" stroke="black" d="M121.75,-636.5C121.75,-636.5 55.5,-636.5 55.5,-636.5 49.5,-636.5 43.5,-630.5 43.5,-624.5 43.5,-624.5 43.5,-612.5 43.5,-612.5 43.5,-606.5 49.5,-600.5 55.5,-600.5 55.5,-600.5 121.75,-600.5 121.75,-600.5 127.75,-600.5 133.75,-606.5 133.75,-612.5 133.75,-612.5 133.75,-624.5 133.75,-624.5 133.75,-630.5 127.75,-636.5 121.75,-636.5"/>
<text xml:space="preserve" text-anchor="middle" x="88.62" y="-613.45" font-family="Times New Roman,serif" font-size="14.00">SDF_QUICK</text>
</g>
<!-- SDF_RAY_HIT -->
<g id="node12" class="node">
<title>SDF_RAY_HIT</title>
<path fill="none" stroke="black" d="M128.88,-708.5C128.88,-708.5 48.38,-708.5 48.38,-708.5 42.38,-708.5 36.38,-702.5 36.38,-696.5 36.38,-696.5 36.38,-684.5 36.38,-684.5 36.38,-678.5 42.38,-672.5 48.38,-672.5 48.38,-672.5 128.88,-672.5 128.88,-672.5 134.88,-672.5 140.88,-678.5 140.88,-684.5 140.88,-684.5 140.88,-696.5 140.88,-696.5 140.88,-702.5 134.88,-708.5 128.88,-708.5"/>
<text xml:space="preserve" text-anchor="middle" x="88.62" y="-685.45" font-family="Times New Roman,serif" font-size="14.00">SDF_RAY_HIT</text>
</g>
<!-- SDF_RAY_MARCHER -->
<g id="node13" class="node">
<title>SDF_RAY_MARCHER</title>
<path fill="none" stroke="black" d="M151.38,-780.5C151.38,-780.5 25.88,-780.5 25.88,-780.5 19.88,-780.5 13.88,-774.5 13.88,-768.5 13.88,-768.5 13.88,-756.5 13.88,-756.5 13.88,-750.5 19.88,-744.5 25.88,-744.5 25.88,-744.5 151.38,-744.5 151.38,-744.5 157.38,-744.5 163.38,-750.5 163.38,-756.5 163.38,-756.5 163.38,-768.5 163.38,-768.5 163.38,-774.5 157.38,-780.5 151.38,-780.5"/>
<text xml:space="preserve" text-anchor="middle" x="88.62" y="-757.45" font-family="Times New Roman,serif" font-size="14.00">SDF_RAY_MARCHER</text>
</g>
<!-- SDF_SCENE -->
<g id="node14" class="node">
<title>SDF_SCENE</title>
<path fill="none" stroke="black" d="M121.75,-852.5C121.75,-852.5 55.5,-852.5 55.5,-852.5 49.5,-852.5 43.5,-846.5 43.5,-840.5 43.5,-840.5 43.5,-828.5 43.5,-828.5 43.5,-822.5 49.5,-816.5 55.5,-816.5 55.5,-816.5 121.75,-816.5 121.75,-816.5 127.75,-816.5 133.75,-822.5 133.75,-828.5 133.75,-828.5 133.75,-840.5 133.75,-840.5 133.75,-846.5 127.75,-852.5 121.75,-852.5"/>
<text xml:space="preserve" text-anchor="middle" x="88.62" y="-829.45" font-family="Times New Roman,serif" font-size="14.00">SDF_SCENE</text>
</g>
<!-- SDF_SCENE_ENTRY -->
<g id="node15" class="node">
<title>SDF_SCENE_ENTRY</title>
<path fill="none" stroke="black" d="M147.25,-924.5C147.25,-924.5 30,-924.5 30,-924.5 24,-924.5 18,-918.5 18,-912.5 18,-912.5 18,-900.5 18,-900.5 18,-894.5 24,-888.5 30,-888.5 30,-888.5 147.25,-888.5 147.25,-888.5 153.25,-888.5 159.25,-894.5 159.25,-900.5 159.25,-900.5 159.25,-912.5 159.25,-912.5 159.25,-918.5 153.25,-924.5 147.25,-924.5"/>
<text xml:space="preserve" text-anchor="middle" x="88.62" y="-901.45" font-family="Times New Roman,serif" font-size="14.00">SDF_SCENE_ENTRY</text>
</g>
<!-- SIMPLE_SDF -->
<g id="node16" class="node">
<title>SIMPLE_SDF</title>
<path fill="none" stroke="black" d="M124.75,-996.5C124.75,-996.5 52.5,-996.5 52.5,-996.5 46.5,-996.5 40.5,-990.5 40.5,-984.5 40.5,-984.5 40.5,-972.5 40.5,-972.5 40.5,-966.5 46.5,-960.5 52.5,-960.5 52.5,-960.5 124.75,-960.5 124.75,-960.5 130.75,-960.5 136.75,-966.5 136.75,-972.5 136.75,-972.5 136.75,-984.5 136.75,-984.5 136.75,-990.5 130.75,-996.5 124.75,-996.5"/>
<text xml:space="preserve" text-anchor="middle" x="88.62" y="-973.45" font-family="Times New Roman,serif" font-size="14.00">SIMPLE_SDF</text>
</g>
<!-- SDF_VEC2 -->
<g id="node17" class="node">
<title>SDF_VEC2</title>
<path fill="none" stroke="black" d="M117.25,-1140.5C117.25,-1140.5 60,-1140.5 60,-1140.5 54,-1140.5 48,-1134.5 48,-1128.5 48,-1128.5 48,-1116.5 48,-1116.5 48,-1110.5 54,-1104.5 60,-1104.5 60,-1104.5 117.25,-1104.5 117.25,-1104.5 123.25,-1104.5 129.25,-1110.5 129.25,-1116.5 129.25,-1116.5 129.25,-1128.5 129.25,-1128.5 129.25,-1134.5 123.25,-1140.5 117.25,-1140.5"/>
<text xml:space="preserve" text-anchor="middle" x="88.62" y="-1117.45" font-family="Times New Roman,serif" font-size="14.00">SDF_VEC2</text>
</g>
<!-- ANY -->
<g id="node18" class="node">
<title>ANY</title>
<path fill="none" stroke="black" d="M360.38,-1104.5C360.38,-1104.5 330.38,-1104.5 330.38,-1104.5 324.38,-1104.5 318.38,-1098.5 318.38,-1092.5 318.38,-1092.5 318.38,-1080.5 318.38,-1080.5 318.38,-1074.5 324.38,-1068.5 330.38,-1068.5 330.38,-1068.5 360.38,-1068.5 360.38,-1068.5 366.38,-1068.5 372.38,-1074.5 372.38,-1080.5 372.38,-1080.5 372.38,-1092.5 372.38,-1092.5 372.38,-1098.5 366.38,-1104.5 360.38,-1104.5"/>
<text xml:space="preserve" text-anchor="middle" x="345.38" y="-1081.45" font-family="Times New Roman,serif" font-size="14.00">ANY</text>
</g>
<!-- SDF_VEC2&#45;&gt;ANY -->
<g id="edge8" class="edge">
<title>SDF_VEC2&#45;&gt;ANY</title>
<path fill="none" stroke="black" d="M129.61,-1122.5C202.13,-1122.5 345.5,-1122.5 345.5,-1122.5 345.5,-1122.5 345.5,-1116.44 345.5,-1116.44"/>
<polygon fill="none" stroke="black" points="349,-1116.44 345.5,-1106.44 342,-1116.44 349,-1116.44"/>
</g>
<!-- SDF_VEC3 -->
<g id="node19" class="node">
<title>SDF_VEC3</title>
<path fill="none" stroke="black" d="M117.25,-1068.5C117.25,-1068.5 60,-1068.5 60,-1068.5 54,-1068.5 48,-1062.5 48,-1056.5 48,-1056.5 48,-1044.5 48,-1044.5 48,-1038.5 54,-1032.5 60,-1032.5 60,-1032.5 117.25,-1032.5 117.25,-1032.5 123.25,-1032.5 129.25,-1038.5 129.25,-1044.5 129.25,-1044.5 129.25,-1056.5 129.25,-1056.5 129.25,-1062.5 123.25,-1068.5 117.25,-1068.5"/>
<text xml:space="preserve" text-anchor="middle" x="88.62" y="-1045.45" font-family="Times New Roman,serif" font-size="14.00">SDF_VEC3</text>
</g>
<!-- SDF_VEC3&#45;&gt;ANY -->
<g id="edge9" class="edge">
<title>SDF_VEC3&#45;&gt;ANY</title>
<path fill="none" stroke="black" d="M129.61,-1050.5C202.13,-1050.5 345.5,-1050.5 345.5,-1050.5 345.5,-1050.5 345.5,-1056.56 345.5,-1056.56"/>
<polygon fill="none" stroke="black" points="342,-1056.56 345.5,-1066.56 349,-1056.56 342,-1056.56"/>
</g>
<!-- MINIFB_BUFFER -->
<g id="node20" class="node">
<title>MINIFB_BUFFER</title>
<path fill="none" stroke="black" d="M137.5,-1212.5C137.5,-1212.5 39.75,-1212.5 39.75,-1212.5 33.75,-1212.5 27.75,-1206.5 27.75,-1200.5 27.75,-1200.5 27.75,-1188.5 27.75,-1188.5 27.75,-1182.5 33.75,-1176.5 39.75,-1176.5 39.75,-1176.5 137.5,-1176.5 137.5,-1176.5 143.5,-1176.5 149.5,-1182.5 149.5,-1188.5 149.5,-1188.5 149.5,-1200.5 149.5,-1200.5 149.5,-1206.5 143.5,-1212.5 137.5,-1212.5"/>
<text xml:space="preserve" text-anchor="middle" x="88.62" y="-1189.45" font-family="Times New Roman,serif" font-size="14.00">MINIFB_BUFFER</text>
</g>
<!-- MINIFB_WINDOW -->
<g id="node21" class="node">
<title>MINIFB_WINDOW</title>
<path fill="none" stroke="black" d="M142.38,-1284.5C142.38,-1284.5 34.88,-1284.5 34.88,-1284.5 28.88,-1284.5 22.88,-1278.5 22.88,-1272.5 22.88,-1272.5 22.88,-1260.5 22.88,-1260.5 22.88,-1254.5 28.88,-1248.5 34.88,-1248.5 34.88,-1248.5 142.38,-1248.5 142.38,-1248.5 148.38,-1248.5 154.38,-1254.5 154.38,-1260.5 154.38,-1260.5 154.38,-1272.5 154.38,-1272.5 154.38,-1278.5 148.38,-1284.5 142.38,-1284.5"/>
<text xml:space="preserve" text-anchor="middle" x="88.62" y="-1261.45" font-family="Times New Roman,serif" font-size="14.00">MINIFB_WINDOW</text>
</g>
<!-- SIMPLE_MINIFB -->
<g id="node22" class="node">
<title>SIMPLE_MINIFB</title>
<path fill="none" stroke="black" d="M136.38,-1356.5C136.38,-1356.5 40.88,-1356.5 40.88,-1356.5 34.88,-1356.5 28.88,-1350.5 28.88,-1344.5 28.88,-1344.5 28.88,-1332.5 28.88,-1332.5 28.88,-1326.5 34.88,-1320.5 40.88,-1320.5 40.88,-1320.5 136.38,-1320.5 136.38,-1320.5 142.38,-1320.5 148.38,-1326.5 148.38,-1332.5 148.38,-1332.5 148.38,-1344.5 148.38,-1344.5 148.38,-1350.5 142.38,-1356.5 136.38,-1356.5"/>
<text xml:space="preserve" text-anchor="middle" x="88.62" y="-1333.45" font-family="Times New Roman,serif" font-size="14.00">SIMPLE_MINIFB</text>
</g>
<!-- RAYLIB_BUFFER -->
<g id="node23" class="node">
<title>RAYLIB_BUFFER</title>
<path fill="none" stroke="black" d="M138.25,-1428.5C138.25,-1428.5 39,-1428.5 39,-1428.5 33,-1428.5 27,-1422.5 27,-1416.5 27,-1416.5 27,-1404.5 27,-1404.5 27,-1398.5 33,-1392.5 39,-1392.5 39,-1392.5 138.25,-1392.5 138.25,-1392.5 144.25,-1392.5 150.25,-1398.5 150.25,-1404.5 150.25,-1404.5 150.25,-1416.5 150.25,-1416.5 150.25,-1422.5 144.25,-1428.5 138.25,-1428.5"/>
<text xml:space="preserve" text-anchor="middle" x="88.62" y="-1405.45" font-family="Times New Roman,serif" font-size="14.00">RAYLIB_BUFFER</text>
</g>
<!-- RAYLIB_GPU_RENDERER -->
<g id="node24" class="node">
<title>RAYLIB_GPU_RENDERER</title>
<path fill="none" stroke="black" d="M165.25,-1500.5C165.25,-1500.5 12,-1500.5 12,-1500.5 6,-1500.5 0,-1494.5 0,-1488.5 0,-1488.5 0,-1476.5 0,-1476.5 0,-1470.5 6,-1464.5 12,-1464.5 12,-1464.5 165.25,-1464.5 165.25,-1464.5 171.25,-1464.5 177.25,-1470.5 177.25,-1476.5 177.25,-1476.5 177.25,-1488.5 177.25,-1488.5 177.25,-1494.5 171.25,-1500.5 165.25,-1500.5"/>
<text xml:space="preserve" text-anchor="middle" x="88.62" y="-1477.45" font-family="Times New Roman,serif" font-size="14.00">RAYLIB_GPU_RENDERER</text>
</g>
<!-- SIMPLE_RAYLIB -->
<g id="node25" class="node">
<title>SIMPLE_RAYLIB</title>
<path fill="none" stroke="black" d="M137.12,-1572.5C137.12,-1572.5 40.12,-1572.5 40.12,-1572.5 34.12,-1572.5 28.12,-1566.5 28.12,-1560.5 28.12,-1560.5 28.12,-1548.5 28.12,-1548.5 28.12,-1542.5 34.12,-1536.5 40.12,-1536.5 40.12,-1536.5 137.12,-1536.5 137.12,-1536.5 143.12,-1536.5 149.12,-1542.5 149.12,-1548.5 149.12,-1548.5 149.12,-1560.5 149.12,-1560.5 149.12,-1566.5 143.12,-1572.5 137.12,-1572.5"/>
<text xml:space="preserve" text-anchor="middle" x="88.62" y="-1549.45" font-family="Times New Roman,serif" font-size="14.00">SIMPLE_RAYLIB</text>
</g>
<!-- SDF_VISION_RENDERER -->
<g id="node26" class="node">
<title>SDF_VISION_RENDERER</title>
<path fill="none" stroke="black" d="M162.25,-1644.5C162.25,-1644.5 15,-1644.5 15,-1644.5 9,-1644.5 3,-1638.5 3,-1632.5 3,-1632.5 3,-1620.5 3,-1620.5 3,-1614.5 9,-1608.5 15,-1608.5 15,-1608.5 162.25,-1608.5 162.25,-1608.5 168.25,-1608.5 174.25,-1614.5 174.25,-1620.5 174.25,-1620.5 174.25,-1632.5 174.25,-1632.5 174.25,-1638.5 168.25,-1644.5 162.25,-1644.5"/>
<text xml:space="preserve" text-anchor="middle" x="88.62" y="-1621.45" font-family="Times New Roman,serif" font-size="14.00">SDF_VISION_RENDERER</text>
</g>
<!-- SV_ANY -->
<g id="node27" class="node">
<title>SV_ANY</title>
<path fill="none" stroke="black" d="M368,-1644.5C368,-1644.5 322.75,-1644.5 322.75,-1644.5 316.75,-1644.5 310.75,-1638.5 310.75,-1632.5 310.75,-1632.5 310.75,-1620.5 310.75,-1620.5 310.75,-1614.5 316.75,-1608.5 322.75,-1608.5 322.75,-1608.5 368,-1608.5 368,-1608.5 374,-1608.5 380,-1614.5 380,-1620.5 380,-1620.5 380,-1632.5 380,-1632.5 380,-1638.5 374,-1644.5 368,-1644.5"/>
<text xml:space="preserve" text-anchor="middle" x="345.38" y="-1621.45" font-family="Times New Roman,serif" font-size="14.00">SV_ANY</text>
</g>
<!-- SDF_VISION_RENDERER&#45;&gt;SV_ANY -->
<g id="edge10" class="edge">
<title>SDF_VISION_RENDERER&#45;&gt;SV_ANY</title>
<path fill="none" stroke="black" d="M174.48,-1632.5C174.48,-1632.5 298.81,-1632.5 298.81,-1632.5"/>
<polygon fill="none" stroke="black" points="298.81,-1636 308.81,-1632.5 298.81,-1629 298.81,-1636"/>
</g>
<!-- SDF_VISION_RENDERER&#45;&gt;SV_ANY -->
<g id="edge12" class="edge">
<title>SDF_VISION_RENDERER&#45;&gt;SV_ANY</title>
<path fill="none" stroke="black" d="M174.48,-1620.5C174.48,-1620.5 298.81,-1620.5 298.81,-1620.5"/>
<polygon fill="none" stroke="black" points="298.81,-1624 308.81,-1620.5 298.81,-1617 298.81,-1624"/>
</g>
<!-- LIB_TESTS -->
<g id="node28" class="node">
<title>LIB_TESTS</title>
<path fill="none" stroke="black" d="M118.75,-1716.5C118.75,-1716.5 58.5,-1716.5 58.5,-1716.5 52.5,-1716.5 46.5,-1710.5 46.5,-1704.5 46.5,-1704.5 46.5,-1692.5 46.5,-1692.5 46.5,-1686.5 52.5,-1680.5 58.5,-1680.5 58.5,-1680.5 118.75,-1680.5 118.75,-1680.5 124.75,-1680.5 130.75,-1686.5 130.75,-1692.5 130.75,-1692.5 130.75,-1704.5 130.75,-1704.5 130.75,-1710.5 124.75,-1716.5 118.75,-1716.5"/>
<text xml:space="preserve" text-anchor="middle" x="88.62" y="-1693.45" font-family="Times New Roman,serif" font-size="14.00">LIB_TESTS</text>
</g>
<!-- TEST_SET_BASE -->
<g id="node29" class="node">
<title>TEST_SET_BASE</title>
<path fill="none" stroke="black" d="M393.5,-1716.5C393.5,-1716.5 297.25,-1716.5 297.25,-1716.5 291.25,-1716.5 285.25,-1710.5 285.25,-1704.5 285.25,-1704.5 285.25,-1692.5 285.25,-1692.5 285.25,-1686.5 291.25,-1680.5 297.25,-1680.5 297.25,-1680.5 393.5,-1680.5 393.5,-1680.5 399.5,-1680.5 405.5,-1686.5 405.5,-1692.5 405.5,-1692.5 405.5,-1704.5 405.5,-1704.5 405.5,-1710.5 399.5,-1716.5 393.5,-1716.5"/>
<text xml:space="preserve" text-anchor="middle" x="345.38" y="-1693.45" font-family="Times New Roman,serif" font-size="14.00">TEST_SET_BASE</text>
</g>
<!-- LIB_TESTS&#45;&gt;TEST_SET_BASE -->
<g id="edge11" class="edge">
<title>LIB_TESTS&#45;&gt;TEST_SET_BASE</title>
<path fill="none" stroke="black" d="M131.02,-1698.5C131.02,-1698.5 273.63,-1698.5 273.63,-1698.5"/>
<polygon fill="none" stroke="black" points="273.63,-1702 283.63,-1698.5 273.63,-1695 273.63,-1702"/>
</g>
<!-- TEST_APP -->
<g id="node30" class="node">
<title>TEST_APP</title>
<path fill="none" stroke="black" d="M116.5,-1788.5C116.5,-1788.5 60.75,-1788.5 60.75,-1788.5 54.75,-1788.5 48.75,-1782.5 48.75,-1776.5 48.75,-1776.5 48.75,-1764.5 48.75,-1764.5 48.75,-1758.5 54.75,-1752.5 60.75,-1752.5 60.75,-1752.5 116.5,-1752.5 116.5,-1752.5 122.5,-1752.5 128.5,-1758.5 128.5,-1764.5 128.5,-1764.5 128.5,-1776.5 128.5,-1776.5 128.5,-1782.5 122.5,-1788.5 116.5,-1788.5"/>
<text xml:space="preserve" text-anchor="middle" x="88.62" y="-1765.45" font-family="Times New Roman,serif" font-size="14.00">TEST_APP</text>
</g>
<!-- SDF_DYNAMIC_DEMO -->
<g id="node31" class="node">
<title>SDF_DYNAMIC_DEMO</title>
<path fill="none" stroke="black" d="M156.62,-1860.5C156.62,-1860.5 20.62,-1860.5 20.62,-1860.5 14.62,-1860.5 8.62,-1854.5 8.62,-1848.5 8.62,-1848.5 8.62,-1836.5 8.62,-1836.5 8.62,-1830.5 14.62,-1824.5 20.62,-1824.5 20.62,-1824.5 156.62,-1824.5 156.62,-1824.5 162.62,-1824.5 168.62,-1830.5 168.62,-1836.5 168.62,-1836.5 168.62,-1848.5 168.62,-1848.5 168.62,-1854.5 162.62,-1860.5 156.62,-1860.5"/>
<text xml:space="preserve" text-anchor="middle" x="88.62" y="-1837.45" font-family="Times New Roman,serif" font-size="14.00">SDF_DYNAMIC_DEMO</text>
</g>
<!-- SDF_GPU_DEMO -->
<g id="node32" class="node">
<title>SDF_GPU_DEMO</title>
<path fill="none" stroke="black" d="M137.5,-1932.5C137.5,-1932.5 39.75,-1932.5 39.75,-1932.5 33.75,-1932.5 27.75,-1926.5 27.75,-1920.5 27.75,-1920.5 27.75,-1908.5 27.75,-1908.5 27.75,-1902.5 33.75,-1896.5 39.75,-1896.5 39.75,-1896.5 137.5,-1896.5 137.5,-1896.5 143.5,-1896.5 149.5,-1902.5 149.5,-1908.5 149.5,-1908.5 149.5,-1920.5 149.5,-1920.5 149.5,-1926.5 143.5,-1932.5 137.5,-1932.5"/>
<text xml:space="preserve" text-anchor="middle" x="88.62" y="-1909.45" font-family="Times New Roman,serif" font-size="14.00">SDF_GPU_DEMO</text>
</g>
<!-- SDF_MINIFB_DEMO -->
<g id="node33" class="node">
<title>SDF_MINIFB_DEMO</title>
<path fill="none" stroke="black" d="M148,-2004.5C148,-2004.5 29.25,-2004.5 29.25,-2004.5 23.25,-2004.5 17.25,-1998.5 17.25,-1992.5 17.25,-1992.5 17.25,-1980.5 17.25,-1980.5 17.25,-1974.5 23.25,-1968.5 29.25,-1968.5 29.25,-1968.5 148,-1968.5 148,-1968.5 154,-1968.5 160,-1974.5 160,-1980.5 160,-1980.5 160,-1992.5 160,-1992.5 160,-1998.5 154,-2004.5 148,-2004.5"/>
<text xml:space="preserve" text-anchor="middle" x="88.62" y="-1981.45" font-family="Times New Roman,serif" font-size="14.00">SDF_MINIFB_DEMO</text>
</g>
<!-- SDF_QUICK_DEMO -->
<g id="node34" class="node">
<title>SDF_QUICK_DEMO</title>
<path fill="none" stroke="black" d="M145.38,-2076.5C145.38,-2076.5 31.88,-2076.5 31.88,-2076.5 25.88,-2076.5 19.88,-2070.5 19.88,-2064.5 19.88,-2064.5 19.88,-2052.5 19.88,-2052.5 19.88,-2046.5 25.88,-2040.5 31.88,-2040.5 31.88,-2040.5 145.38,-2040.5 145.38,-2040.5 151.38,-2040.5 157.38,-2046.5 157.38,-2052.5 157.38,-2052.5 157.38,-2064.5 157.38,-2064.5 157.38,-2070.5 151.38,-2076.5 145.38,-2076.5"/>
<text xml:space="preserve" text-anchor="middle" x="88.62" y="-2053.45" font-family="Times New Roman,serif" font-size="14.00">SDF_QUICK_DEMO</text>
</g>
<!-- SDF_RAYLIB_DEMO -->
<g id="node35" class="node">
<title>SDF_RAYLIB_DEMO</title>
<path fill="none" stroke="black" d="M148.75,-2148.5C148.75,-2148.5 28.5,-2148.5 28.5,-2148.5 22.5,-2148.5 16.5,-2142.5 16.5,-2136.5 16.5,-2136.5 16.5,-2124.5 16.5,-2124.5 16.5,-2118.5 22.5,-2112.5 28.5,-2112.5 28.5,-2112.5 148.75,-2112.5 148.75,-2112.5 154.75,-2112.5 160.75,-2118.5 160.75,-2124.5 160.75,-2124.5 160.75,-2136.5 160.75,-2136.5 160.75,-2142.5 154.75,-2148.5 148.75,-2148.5"/>
<text xml:space="preserve" text-anchor="middle" x="88.62" y="-2125.45" font-family="Times New Roman,serif" font-size="14.00">SDF_RAYLIB_DEMO</text>
</g>
<!-- SDF_VILLAGE_DEMO -->
<g id="node36" class="node">
<title>SDF_VILLAGE_DEMO</title>
<path fill="none" stroke="black" d="M153.25,-2220.5C153.25,-2220.5 24,-2220.5 24,-2220.5 18,-2220.5 12,-2214.5 12,-2208.5 12,-2208.5 12,-2196.5 12,-2196.5 12,-2190.5 18,-2184.5 24,-2184.5 24,-2184.5 153.25,-2184.5 153.25,-2184.5 159.25,-2184.5 165.25,-2190.5 165.25,-2196.5 165.25,-2196.5 165.25,-2208.5 165.25,-2208.5 165.25,-2214.5 159.25,-2220.5 153.25,-2220.5"/>
<text xml:space="preserve" text-anchor="middle" x="88.62" y="-2197.45" font-family="Times New Roman,serif" font-size="14.00">SDF_VILLAGE_DEMO</text>
</g>
<!-- SDF_VISION_DEMO -->
<g id="node37" class="node">
<title>SDF_VISION_DEMO</title>
<path fill="none" stroke="black" d="M146.88,-2292.5C146.88,-2292.5 30.38,-2292.5 30.38,-2292.5 24.38,-2292.5 18.38,-2286.5 18.38,-2280.5 18.38,-2280.5 18.38,-2268.5 18.38,-2268.5 18.38,-2262.5 24.38,-2256.5 30.38,-2256.5 30.38,-2256.5 146.88,-2256.5 146.88,-2256.5 152.88,-2256.5 158.88,-2262.5 158.88,-2268.5 158.88,-2268.5 158.88,-2280.5 158.88,-2280.5 158.88,-2286.5 152.88,-2292.5 146.88,-2292.5"/>
<text xml:space="preserve" text-anchor="middle" x="88.62" y="-2269.45" font-family="Times New Roman,serif" font-size="14.00">SDF_VISION_DEMO</text>
</g>
<!-- SDF_VULKAN_DEMO -->
<g id="node38" class="node">
<title>SDF_VULKAN_DEMO</title>
<path fill="none" stroke="black" d="M152.5,-2364.5C152.5,-2364.5 24.75,-2364.5 24.75,-2364.5 18.75,-2364.5 12.75,-2358.5 12.75,-2352.5 12.75,-2352.5 12.75,-2340.5 12.75,-2340.5 12.75,-2334.5 18.75,-2328.5 24.75,-2328.5 24.75,-2328.5 152.5,-2328.5 152.5,-2328.5 158.5,-2328.5 164.5,-2334.5 164.5,-2340.5 164.5,-2340.5 164.5,-2352.5 164.5,-2352.5 164.5,-2358.5 158.5,-2364.5 152.5,-2364.5"/>
<text xml:space="preserve" text-anchor="middle" x="88.62" y="-2341.45" font-family="Times New Roman,serif" font-size="14.00">SDF_VULKAN_DEMO</text>
</g>
</g>
</svg>
