<?xml version="1.0" encoding="UTF-8" standalone="no"?>
<!DOCTYPE svg PUBLIC "-//W3C//DTD SVG 1.1//EN"
 "http://www.w3.org/Graphics/SVG/1.1/DTD/svg11.dtd">
<!-- Generated by graphviz version 14.1.1 (20251213.1925)
 -->
<!-- Title: Dependencies Pages: 1 -->
<svg width="329pt" height="573pt"
 viewBox="0.00 0.00 329.00 573.00" xmlns="http://www.w3.org/2000/svg" xmlns:xlink="http://www.w3.org/1999/xlink">
<g id="graph0" class="graph" transform="scale(1 1) rotate(0) translate(4 568.5)">
<title>Dependencies</title>
<polygon fill="white" stroke="none" points="-4,4 -4,-568.5 324.75,-568.5 324.75,4 -4,4"/>
<text xml:space="preserve" text-anchor="middle" x="160.38" y="-7.2" font-family="Times New Roman,serif" font-size="14.00">simple_sdf &#45; Dependencies</text>
<!-- simple_sdf -->
<g id="node1" class="node">
<title>simple_sdf</title>
<polygon fill="lightblue" stroke="black" points="76,-456.5 0,-456.5 0,-420.5 76,-420.5 76,-456.5"/>
<text xml:space="preserve" text-anchor="middle" x="38" y="-433.45" font-family="Times New Roman,serif" font-size="14.00">simple_sdf</text>
</g>
<!-- simple_testing -->
<g id="node2" class="node">
<title>simple_testing</title>
<polygon fill="lightblue" stroke="black" points="318.12,-564.5 222.62,-564.5 222.62,-528.5 318.12,-528.5 318.12,-564.5"/>
<text xml:space="preserve" text-anchor="middle" x="270.38" y="-541.45" font-family="Times New Roman,serif" font-size="14.00">simple_testing</text>
</g>
<!-- simple_sdf&#45;&gt;simple_testing -->
<g id="edge1" class="edge">
<title>simple_sdf&#45;&gt;simple_testing</title>
<path fill="none" stroke="black" stroke-dasharray="5,2" d="M10.75,-456.82C10.75,-487.63 10.75,-546.5 10.75,-546.5 10.75,-546.5 210.64,-546.5 210.64,-546.5"/>
<polygon fill="black" stroke="black" points="210.64,-550 220.64,-546.5 210.64,-543 210.64,-550"/>
</g>
<!-- simple_vulkan -->
<g id="node3" class="node">
<title>simple_vulkan</title>
<polygon fill="lightblue" stroke="black" points="318.5,-492.5 222.25,-492.5 222.25,-456.5 318.5,-456.5 318.5,-492.5"/>
<text xml:space="preserve" text-anchor="middle" x="270.38" y="-469.45" font-family="Times New Roman,serif" font-size="14.00">simple_vulkan</text>
</g>
<!-- simple_sdf&#45;&gt;simple_vulkan -->
<g id="edge2" class="edge">
<title>simple_sdf&#45;&gt;simple_vulkan</title>
<path fill="none" stroke="black" stroke-dasharray="5,2" d="M21.75,-456.93C21.75,-460.16 21.75,-462.5 21.75,-462.5 21.75,-462.5 210.33,-462.5 210.33,-462.5"/>
<polygon fill="black" stroke="black" points="210.33,-466 220.33,-462.5 210.33,-459 210.33,-466"/>
</g>
<!-- simple_sdf&#45;&gt;simple_vulkan -->
<g id="edge3" class="edge">
<title>simple_sdf&#45;&gt;simple_vulkan</title>
<path fill="none" stroke="black" stroke-dasharray="5,2" d="M32.75,-456.99C32.75,-463.16 32.75,-468.5 32.75,-468.5 32.75,-468.5 210.49,-468.5 210.49,-468.5"/>
<polygon fill="black" stroke="black" points="210.49,-472 220.49,-468.5 210.49,-465 210.49,-472"/>
</g>
<!-- simple_sdf&#45;&gt;simple_vulkan -->
<g id="edge4" class="edge">
<title>simple_sdf&#45;&gt;simple_vulkan</title>
<path fill="none" stroke="black" stroke-dasharray="5,2" d="M43.75,-456.92C43.75,-465.78 43.75,-474.5 43.75,-474.5 43.75,-474.5 210.24,-474.5 210.24,-474.5"/>
<polygon fill="black" stroke="black" points="210.24,-478 220.24,-474.5 210.24,-471 210.24,-478"/>
</g>
<!-- simple_sdf&#45;&gt;simple_vulkan -->
<g id="edge6" class="edge">
<title>simple_sdf&#45;&gt;simple_vulkan</title>
<path fill="none" stroke="black" stroke-dasharray="5,2" d="M54.75,-456.56C54.75,-467.94 54.75,-480.5 54.75,-480.5 54.75,-480.5 210.47,-480.5 210.47,-480.5"/>
<polygon fill="black" stroke="black" points="210.47,-484 220.47,-480.5 210.47,-477 210.47,-484"/>
</g>
<!-- simple_sdf&#45;&gt;simple_vulkan -->
<g id="edge7" class="edge">
<title>simple_sdf&#45;&gt;simple_vulkan</title>
<path fill="none" stroke="black" stroke-dasharray="5,2" d="M64.75,-456.92C64.75,-470.46 64.75,-486.5 64.75,-486.5 64.75,-486.5 210.39,-486.5 210.39,-486.5"/>
<polygon fill="black" stroke="black" points="210.39,-490 220.39,-486.5 210.39,-483 210.39,-490"/>
</g>
<!-- simple_vision -->
<g id="node4" class="node">
<title>simple_vision</title>
<polygon fill="lightblue" stroke="black" points="316.62,-420.5 224.12,-420.5 224.12,-384.5 316.62,-384.5 316.62,-420.5"/>
<text xml:space="preserve" text-anchor="middle" x="270.38" y="-397.45" font-family="Times New Roman,serif" font-size="14.00">simple_vision</text>
</g>
<!-- simple_sdf&#45;&gt;simple_vision -->
<g id="edge5" class="edge">
<title>simple_sdf&#45;&gt;simple_vision</title>
<path fill="none" stroke="black" stroke-dasharray="5,2" d="M64.75,-420.08C64.75,-411.22 64.75,-402.5 64.75,-402.5 64.75,-402.5 212.2,-402.5 212.2,-402.5"/>
<polygon fill="black" stroke="black" points="212.2,-406 222.2,-402.5 212.2,-399 212.2,-406"/>
</g>
<!-- simple_shaderc -->
<g id="node5" class="node">
<title>simple_shaderc</title>
<polygon fill="lightblue" stroke="black" points="320.75,-348.5 220,-348.5 220,-312.5 320.75,-312.5 320.75,-348.5"/>
<text xml:space="preserve" text-anchor="middle" x="270.38" y="-325.45" font-family="Times New Roman,serif" font-size="14.00">simple_shaderc</text>
</g>
<!-- simple_sdf&#45;&gt;simple_shaderc -->
<g id="edge8" class="edge">
<title>simple_sdf&#45;&gt;simple_shaderc</title>
<path fill="none" stroke="black" stroke-dasharray="5,2" d="M54.75,-420.18C54.75,-389.37 54.75,-330.5 54.75,-330.5 54.75,-330.5 208.03,-330.5 208.03,-330.5"/>
<polygon fill="black" stroke="black" points="208.03,-334 218.03,-330.5 208.03,-327 208.03,-334"/>
</g>
<!-- base -->
<g id="node6" class="node">
<title>base</title>
<polygon fill="lightgray" stroke="black" points="297.38,-276.5 243.38,-276.5 243.38,-240.5 297.38,-240.5 297.38,-276.5"/>
<text xml:space="preserve" text-anchor="middle" x="270.38" y="-253.45" font-family="Times New Roman,serif" font-size="14.00">base</text>
</g>
<!-- simple_sdf&#45;&gt;base -->
<g id="edge9" class="edge">
<title>simple_sdf&#45;&gt;base</title>
<path fill="none" stroke="black" stroke-dasharray="5,2" d="M43.75,-420.25C43.75,-374.49 43.75,-258.5 43.75,-258.5 43.75,-258.5 231.53,-258.5 231.53,-258.5"/>
<polygon fill="black" stroke="black" points="231.53,-262 241.53,-258.5 231.53,-255 231.53,-262"/>
</g>
<!-- testing -->
<g id="node7" class="node">
<title>testing</title>
<polygon fill="lightgray" stroke="black" points="297.38,-204.5 243.38,-204.5 243.38,-168.5 297.38,-168.5 297.38,-204.5"/>
<text xml:space="preserve" text-anchor="middle" x="270.38" y="-181.45" font-family="Times New Roman,serif" font-size="14.00">testing</text>
</g>
<!-- simple_sdf&#45;&gt;testing -->
<g id="edge10" class="edge">
<title>simple_sdf&#45;&gt;testing</title>
<path fill="none" stroke="black" stroke-dasharray="5,2" d="M32.75,-420.38C32.75,-362.6 32.75,-186.5 32.75,-186.5 32.75,-186.5 231.6,-186.5 231.6,-186.5"/>
<polygon fill="black" stroke="black" points="231.6,-190 241.6,-186.5 231.6,-183 231.6,-190"/>
</g>
<!-- vision2 -->
<g id="node8" class="node">
<title>vision2</title>
<polygon fill="lightgray" stroke="black" points="298.25,-132.5 242.5,-132.5 242.5,-96.5 298.25,-96.5 298.25,-132.5"/>
<text xml:space="preserve" text-anchor="middle" x="270.38" y="-109.45" font-family="Times New Roman,serif" font-size="14.00">vision2</text>
</g>
<!-- simple_sdf&#45;&gt;vision2 -->
<g id="edge11" class="edge">
<title>simple_sdf&#45;&gt;vision2</title>
<path fill="none" stroke="black" stroke-dasharray="5,2" d="M21.75,-420.15C21.75,-351.61 21.75,-114.5 21.75,-114.5 21.75,-114.5 230.82,-114.5 230.82,-114.5"/>
<polygon fill="black" stroke="black" points="230.82,-118 240.82,-114.5 230.82,-111 230.82,-118"/>
</g>
<!-- wel -->
<g id="node9" class="node">
<title>wel</title>
<polygon fill="lightgray" stroke="black" points="297.38,-60.5 243.38,-60.5 243.38,-24.5 297.38,-24.5 297.38,-60.5"/>
<text xml:space="preserve" text-anchor="middle" x="270.38" y="-37.45" font-family="Times New Roman,serif" font-size="14.00">wel</text>
</g>
<!-- simple_sdf&#45;&gt;wel -->
<g id="edge12" class="edge">
<title>simple_sdf&#45;&gt;wel</title>
<path fill="none" stroke="black" stroke-dasharray="5,2" d="M10.75,-420.19C10.75,-342.31 10.75,-42.5 10.75,-42.5 10.75,-42.5 231.57,-42.5 231.57,-42.5"/>
<polygon fill="black" stroke="black" points="231.57,-46 241.57,-42.5 231.57,-39 231.57,-46"/>
</g>
</g>
</svg>
